# xmcd
#
# Track frame offsets:
#	150
#	20660
#	40847
#	60362
#	83678
#	101048
#	123542
#	139091
#	157606
#	177104
#	199506
#	215637
#
# Disc length: 3092 seconds
#
# Revision: 2
# Processed by: cddbd v1.5.2PL0 Copyright (c) Steve Scherf et al.
# Submitted via: audiograbber 1.83.01
#
DISCID=980c120c
DTITLE=YUKIKO KONNO - CD DEMO - Vol 2
DYEAR=2009
DGENRE=Blues
TTITLE0=UKIGUMO
TTITLE1=KAMOME WA KAMOME
TTITLE2=HIMAWARI
TTITLE3=KOSAME MACHI
TTITLE4=UTAWA WATASHINO JINSEI
TTITLE5=BESAME MUCHO
TTITLE6=AI NO ME IRO
TTITLE7=KOIBITOYO
TTITLE8=FUNA UTA
TTITLE9=JINSEI SHIMIJIMI
TTITLE10=UNCHAINED MELODY
TTITLE11=MAYONAKA NO SHOWER
EXTD=KIROIVA
EXTT0=
EXTT1=
EXTT2=
EXTT3=
EXTT4=
EXTT5=
EXTT6=
EXTT7=
EXTT8=
EXTT9=
EXTT10=
EXTT11=KIROIVA
PLAYORDER=
